<svg xmlns="http://www.w3.org/2000/svg" viewBox="0 0 800 500" width="800" height="500">
  <rect width="800" height="500" fill="#fff8ee"/>
  <rect x="0" y="330" width="800" height="170" fill="#e8d5b0"/>
  <rect x="0" y="320" width="800" height="18" fill="#d4b88a"/>
  <circle cx="660" cy="80" r="65" fill="#ffe082" opacity=".5"/>
  <circle cx="660" cy="80" r="42" fill="#ffc840" opacity=".65"/>
  <line x1="0" y1="75" x2="800" y2="75" stroke="#d4a04a" stroke-width="1.5" opacity=".6"/>
  <polygon points="80,75 95,108 65,108" fill="#ff6b6b"/>
  <polygon points="155,75 170,108 140,108" fill="#4ecdc4"/>
  <polygon points="230,75 245,108 215,108" fill="#ffe66d"/>
  <polygon points="305,75 320,108 290,108" fill="#a29bfe"/>
  <polygon points="380,75 395,108 365,108" fill="#fd79a8"/>
  <polygon points="455,75 470,108 440,108" fill="#55efc4"/>
  <polygon points="530,75 545,108 515,108" fill="#fdcb6e"/>
  <polygon points="605,75 620,108 590,108" fill="#ff6b6b"/>
  <polygon points="680,75 695,108 665,108" fill="#a29bfe"/>
  <polygon points="755,75 770,108 740,108" fill="#4ecdc4"/>
  <rect x="50" y="180" width="190" height="145" rx="4" fill="#fff" stroke="#f0d8b0" stroke-width="1.5"/>
  <rect x="48" y="168" width="194" height="30" rx="5" fill="#ff6b6b"/>
  <text x="145" y="189" text-anchor="middle" font-family="Arial,sans-serif" font-size="15" font-weight="700" fill="#fff" letter-spacing="2">SPICES &amp; MAINS</text>
  <ellipse cx="100" cy="290" rx="32" ry="16" fill="#ffe0a3"/>
  <ellipse cx="100" cy="280" rx="32" ry="16" fill="#ffbc42"/>
  <ellipse cx="180" cy="292" rx="32" ry="16" fill="#ffeaa7"/>
  <ellipse cx="180" cy="280" rx="32" ry="16" fill="#e17055"/>
  <ellipse cx="100" cy="248" rx="20" ry="10" fill="#fab1a0"/>
  <ellipse cx="100" cy="242" rx="20" ry="10" fill="#e17055"/>
  <ellipse cx="180" cy="248" rx="20" ry="10" fill="#fdcb6e"/>
  <ellipse cx="180" cy="242" rx="20" ry="10" fill="#e67e22"/>
  <rect x="305" y="180" width="190" height="145" rx="4" fill="#fff" stroke="#b2e0d8" stroke-width="1.5"/>
  <rect x="303" y="168" width="194" height="30" rx="5" fill="#4ecdc4"/>
  <text x="400" y="189" text-anchor="middle" font-family="Arial,sans-serif" font-size="15" font-weight="700" fill="#fff" letter-spacing="2">STREET FOOD</text>
  <rect x="325" y="265" width="60" height="45" rx="8" fill="#dfe6e9"/>
  <ellipse cx="355" cy="265" rx="30" ry="12" fill="#b2bec3"/>
  <rect x="405" y="270" width="50" height="40" rx="8" fill="#fab1a0"/>
  <ellipse cx="430" cy="270" rx="25" ry="10" fill="#e17055"/>
  <rect x="330" y="220" width="45" height="12" rx="3" fill="#00b894"/>
  <rect x="385" y="220" width="45" height="12" rx="3" fill="#00b894" opacity=".7"/>
  <rect x="330" y="236" width="45" height="12" rx="3" fill="#00cec9" opacity=".8"/>
  <rect x="560" y="180" width="190" height="145" rx="4" fill="#fff" stroke="#fde8c0" stroke-width="1.5"/>
  <rect x="558" y="168" width="194" height="30" rx="5" fill="#fdcb6e"/>
  <text x="655" y="189" text-anchor="middle" font-family="Arial,sans-serif" font-size="15" font-weight="700" fill="#7a4f00" letter-spacing="2">SWEETS &amp; DESSERTS</text>
  <rect x="578" y="255" width="50" height="55" rx="5" fill="#fd79a8"/>
  <ellipse cx="603" cy="255" rx="25" ry="10" fill="#e84393"/>
  <rect x="578" y="220" width="50" height="30" rx="5" fill="#fdcb6e"/>
  <circle cx="603" cy="215" r="15" fill="#ffeaa7" stroke="#fdcb6e" stroke-width="2"/>
  <rect x="645" y="260" width="50" height="50" rx="5" fill="#a29bfe"/>
  <ellipse cx="670" cy="260" rx="25" ry="10" fill="#6c5ce7"/>
  <ellipse cx="695" cy="250" rx="22" ry="22" fill="#fd79a8" opacity=".8"/>
  <ellipse cx="695" cy="240" rx="22" ry="8" fill="#e84393"/>
  <ellipse cx="250" cy="330" rx="18" ry="22" fill="#c8a880"/>
  <ellipse cx="278" cy="325" rx="18" ry="26" fill="#a0785a"/>
  <ellipse cx="510" cy="328" rx="18" ry="24" fill="#c8a880"/>
  <ellipse cx="538" cy="323" rx="18" ry="28" fill="#8d5524"/>
  <ellipse cx="770" cy="325" rx="18" ry="26" fill="#c8a880"/>
  <ellipse cx="30" cy="327" rx="18" ry="26" fill="#a0785a"/>
  <text x="400" y="455" text-anchor="middle" font-family="Georgia,serif" font-size="28" font-weight="700" fill="#7a4800" letter-spacing="6">COMMUNITY FOOD FAIR</text>
  <text x="400" y="482" text-anchor="middle" font-family="Arial,sans-serif" font-size="14" fill="#b07830" letter-spacing="3">Community Portal · Event Gallery</text>
</svg>
