<svg xmlns="http://www.w3.org/2000/svg" viewBox="0 0 800 500" width="800" height="500">
  <rect width="800" height="500" fill="#c8eaff"/>
  <rect x="0" y="290" width="800" height="210" fill="#4caf50"/>
  <rect x="0" y="282" width="800" height="16" fill="#43a047"/>
  <ellipse cx="400" cy="350" rx="260" ry="75" fill="none" stroke="#fff" stroke-width="2" opacity=".5"/>
  <line x1="400" y1="280" x2="400" y2="500" stroke="#fff" stroke-width="2" opacity=".4"/>
  <circle cx="400" cy="350" r="40" fill="none" stroke="#fff" stroke-width="1.5" opacity=".35"/>
  <ellipse cx="100" cy="70" rx="80" ry="35" fill="#fff" opacity=".8"/>
  <ellipse cx="65" cy="78" rx="50" ry="28" fill="#fff" opacity=".8"/>
  <ellipse cx="135" cy="82" rx="55" ry="26" fill="#fff" opacity=".8"/>
  <ellipse cx="600" cy="55" rx="75" ry="30" fill="#fff" opacity=".7"/>
  <ellipse cx="570" cy="64" rx="48" ry="25" fill="#fff" opacity=".7"/>
  <ellipse cx="635" cy="66" rx="55" ry="24" fill="#fff" opacity=".7"/>
  <ellipse cx="380" cy="110" rx="60" ry="24" fill="#fff" opacity=".6"/>
  <rect x="25" y="160" width="8" height="130" rx="4" fill="#e0e0e0"/>
  <rect x="25" y="160" width="100" height="8" rx="4" fill="#e0e0e0"/>
  <rect x="117" y="160" width="8" height="130" rx="4" fill="#e0e0e0"/>
  <rect x="667" y="160" width="8" height="130" rx="4" fill="#e0e0e0"/>
  <rect x="667" y="160" width="100" height="8" rx="4" fill="#e0e0e0"/>
  <rect x="759" y="160" width="8" height="130" rx="4" fill="#e0e0e0"/>
  <rect x="280" y="120" width="240" height="52" rx="10" fill="#1a1a2e"/>
  <text x="400" y="155" text-anchor="middle" font-family="Arial,sans-serif" font-size="30" fill="#fff" font-weight="700">2 — 1</text>
  <ellipse cx="210" cy="275" rx="16" ry="18" fill="#ff7043"/>
  <rect x="202" y="290" width="16" height="26" rx="5" fill="#1565c0"/>
  <line x1="206" y1="296" x2="188" y2="312" stroke="#1565c0" stroke-width="5" stroke-linecap="round"/>
  <line x1="218" y1="296" x2="234" y2="314" stroke="#1565c0" stroke-width="5" stroke-linecap="round"/>
  <line x1="206" y1="292" x2="190" y2="278" stroke="#ff7043" stroke-width="5" stroke-linecap="round"/>
  <line x1="218" y1="292" x2="234" y2="276" stroke="#ff7043" stroke-width="5" stroke-linecap="round"/>
  <ellipse cx="270" cy="272" rx="16" ry="18" fill="#f48fb1"/>
  <rect x="262" y="287" width="16" height="26" rx="5" fill="#1565c0"/>
  <line x1="266" y1="292" x2="248" y2="308" stroke="#1565c0" stroke-width="5" stroke-linecap="round"/>
  <line x1="278" y1="292" x2="294" y2="310" stroke="#1565c0" stroke-width="5" stroke-linecap="round"/>
  <line x1="266" y1="288" x2="252" y2="274" stroke="#f48fb1" stroke-width="5" stroke-linecap="round"/>
  <ellipse cx="340" cy="275" rx="16" ry="18" fill="#aed581"/>
  <rect x="332" y="290" width="16" height="26" rx="5" fill="#1565c0"/>
  <line x1="336" y1="296" x2="320" y2="310" stroke="#1565c0" stroke-width="5" stroke-linecap="round"/>
  <line x1="348" y1="296" x2="362" y2="312" stroke="#1565c0" stroke-width="5" stroke-linecap="round"/>
  <circle cx="396" cy="282" r="14" fill="#fff" stroke="#333" stroke-width="2"/>
  <line x1="387" y1="274" x2="405" y2="290" stroke="#333" stroke-width="1.5"/>
  <line x1="405" y1="274" x2="387" y2="290" stroke="#333" stroke-width="1.5"/>
  <ellipse cx="460" cy="272" rx="16" ry="18" fill="#ff8a65"/>
  <rect x="452" y="287" width="16" height="26" rx="5" fill="#c62828"/>
  <line x1="456" y1="292" x2="440" y2="308" stroke="#c62828" stroke-width="5" stroke-linecap="round"/>
  <line x1="468" y1="292" x2="484" y2="310" stroke="#c62828" stroke-width="5" stroke-linecap="round"/>
  <line x1="456" y1="288" x2="442" y2="274" stroke="#ff8a65" stroke-width="5" stroke-linecap="round"/>
  <ellipse cx="530" cy="275" rx="16" ry="18" fill="#ffcc80"/>
  <rect x="522" y="290" width="16" height="26" rx="5" fill="#c62828"/>
  <line x1="526" y1="296" x2="510" y2="310" stroke="#c62828" stroke-width="5" stroke-linecap="round"/>
  <line x1="538" y1="296" x2="554" y2="312" stroke="#c62828" stroke-width="5" stroke-linecap="round"/>
  <line x1="538" y1="292" x2="554" y2="278" stroke="#ffcc80" stroke-width="5" stroke-linecap="round"/>
  <ellipse cx="600" cy="272" rx="16" ry="18" fill="#80deea"/>
  <rect x="592" y="287" width="16" height="26" rx="5" fill="#c62828"/>
  <line x1="596" y1="292" x2="580" y2="308" stroke="#c62828" stroke-width="5" stroke-linecap="round"/>
  <line x1="608" y1="292" x2="624" y2="310" stroke="#c62828" stroke-width="5" stroke-linecap="round"/>
  <circle cx="88" cy="200" r="8" fill="#ff9800" opacity=".8"/>
  <circle cx="108" cy="196" r="8" fill="#e91e63" opacity=".8"/>
  <circle cx="128" cy="202" r="8" fill="#4caf50" opacity=".8"/>
  <circle cx="148" cy="198" r="8" fill="#2196f3" opacity=".8"/>
  <circle cx="638" cy="198" r="8" fill="#ff9800" opacity=".8"/>
  <circle cx="658" cy="194" r="8" fill="#e91e63" opacity=".8"/>
  <circle cx="678" cy="200" r="8" fill="#4caf50" opacity=".8"/>
  <circle cx="698" cy="196" r="8" fill="#2196f3" opacity=".8"/>
  <path d="M640 180 Q648 172 656 180" fill="none" stroke="#333" stroke-width="2.5" stroke-linecap="round"/>
  <path d="M660 175 Q668 167 676 175" fill="none" stroke="#333" stroke-width="2.5" stroke-linecap="round"/>
  <text x="400" y="455" text-anchor="middle" font-family="Georgia,serif" font-size="28" font-weight="700" fill="#1a5e20" letter-spacing="6">LOCAL SPORTS MEET</text>
  <text x="400" y="482" text-anchor="middle" font-family="Arial,sans-serif" font-size="14" fill="#2e7d32" letter-spacing="3">Community Portal · Event Gallery</text>
</svg>
