<svg xmlns="http://www.w3.org/2000/svg" viewBox="0 0 800 500" width="800" height="500">
  <rect width="800" height="500" fill="#fce4ec"/>
  <rect x="0" y="0" width="800" height="180" fill="#ffe0ec" opacity=".7"/>
  <ellipse cx="400" cy="500" rx="560" ry="280" fill="#ff8a65" opacity=".12"/>
  <ellipse cx="400" cy="80" rx="55" ry="22" fill="#fff176" opacity=".8"/>
  <ellipse cx="400" cy="80" rx="36" ry="14" fill="#ffd600" opacity=".7"/>
  <ellipse cx="155" cy="75" rx="90" ry="38" fill="#fff" opacity=".75"/>
  <ellipse cx="115" cy="85" rx="60" ry="30" fill="#fff" opacity=".75"/>
  <ellipse cx="195" cy="90" rx="70" ry="28" fill="#fff" opacity=".75"/>
  <ellipse cx="610" cy="62" rx="85" ry="34" fill="#fff" opacity=".7"/>
  <ellipse cx="575" cy="72" rx="55" ry="27" fill="#fff" opacity=".7"/>
  <ellipse cx="650" cy="75" rx="65" ry="26" fill="#fff" opacity=".7"/>
  <rect x="0" y="320" width="800" height="180" fill="#9e9e9e"/>
  <rect x="0" y="316" width="800" height="10" fill="#757575"/>
  <line x1="0" y1="380" x2="800" y2="380" stroke="#fff" stroke-width="3" stroke-dasharray="35 25"/>
  <rect x="665" y="175" width="10" height="160" rx="5" fill="#555"/>
  <rect x="665" y="175" width="125" height="42" rx="6" fill="#e53935"/>
  <text x="727" y="202" text-anchor="middle" font-family="Arial,sans-serif" font-size="18" font-weight="700" fill="#fff" letter-spacing="3">FINISH</text>
  <line x1="665" y1="335" x2="790" y2="335" stroke="#e53935" stroke-width="7"/>
  <ellipse cx="560" cy="278" rx="17" ry="19" fill="#ff7043"/>
  <rect x="551" y="295" width="18" height="28" rx="5" fill="#1565c0"/>
  <line x1="555" y1="302" x2="535" y2="320" stroke="#1565c0" stroke-width="6" stroke-linecap="round"/>
  <line x1="569" y1="302" x2="588" y2="322" stroke="#1565c0" stroke-width="6" stroke-linecap="round"/>
  <line x1="555" y1="298" x2="537" y2="283" stroke="#ff7043" stroke-width="6" stroke-linecap="round"/>
  <line x1="569" y1="298" x2="587" y2="282" stroke="#ff7043" stroke-width="6" stroke-linecap="round"/>
  <rect x="553" y="296" width="14" height="10" rx="2" fill="#fff"/>
  <text x="560" y="305" text-anchor="middle" font-family="Arial,sans-serif" font-size="7" fill="#333" font-weight="700">01</text>
  <ellipse cx="470" cy="276" rx="17" ry="19" fill="#f06292"/>
  <rect x="461" y="293" width="18" height="28" rx="5" fill="#c62828"/>
  <line x1="465" y1="300" x2="445" y2="318" stroke="#c62828" stroke-width="6" stroke-linecap="round"/>
  <line x1="479" y1="300" x2="498" y2="320" stroke="#c62828" stroke-width="6" stroke-linecap="round"/>
  <line x1="465" y1="296" x2="449" y2="281" stroke="#f06292" stroke-width="6" stroke-linecap="round"/>
  <line x1="479" y1="296" x2="495" y2="280" stroke="#f06292" stroke-width="6" stroke-linecap="round"/>
  <ellipse cx="380" cy="278" rx="17" ry="19" fill="#aed581"/>
  <rect x="371" y="295" width="18" height="28" rx="5" fill="#388e3c"/>
  <line x1="375" y1="302" x2="355" y2="320" stroke="#388e3c" stroke-width="6" stroke-linecap="round"/>
  <line x1="389" y1="302" x2="408" y2="322" stroke="#388e3c" stroke-width="6" stroke-linecap="round"/>
  <line x1="375" y1="298" x2="359" y2="282" stroke="#aed581" stroke-width="6" stroke-linecap="round"/>
  <ellipse cx="290" cy="276" rx="17" ry="19" fill="#80deea"/>
  <rect x="281" y="293" width="18" height="28" rx="5" fill="#00838f"/>
  <line x1="285" y1="300" x2="265" y2="318" stroke="#00838f" stroke-width="6" stroke-linecap="round"/>
  <line x1="299" y1="300" x2="318" y2="318" stroke="#00838f" stroke-width="6" stroke-linecap="round"/>
  <line x1="299" y1="296" x2="316" y2="280" stroke="#80deea" stroke-width="6" stroke-linecap="round"/>
  <ellipse cx="200" cy="278" rx="17" ry="19" fill="#ffcc80"/>
  <rect x="191" y="295" width="18" height="28" rx="5" fill="#e65100"/>
  <line x1="195" y1="302" x2="175" y2="320" stroke="#e65100" stroke-width="6" stroke-linecap="round"/>
  <line x1="209" y1="302" x2="228" y2="320" stroke="#e65100" stroke-width="6" stroke-linecap="round"/>
  <line x1="195" y1="298" x2="179" y2="282" stroke="#ffcc80" stroke-width="6" stroke-linecap="round"/>
  <ellipse cx="110" cy="276" rx="17" ry="19" fill="#ce93d8"/>
  <rect x="101" y="293" width="18" height="28" rx="5" fill="#6a1b9a"/>
  <line x1="105" y1="300" x2="85" y2="318" stroke="#6a1b9a" stroke-width="6" stroke-linecap="round"/>
  <line x1="119" y1="300" x2="138" y2="318" stroke="#6a1b9a" stroke-width="6" stroke-linecap="round"/>
  <line x1="105" y1="296" x2="88" y2="280" stroke="#ce93d8" stroke-width="6" stroke-linecap="round"/>
  <circle cx="50" cy="238" r="10" fill="#f48fb1" opacity=".8"/>
  <circle cx="70" cy="232" r="10" fill="#64b5f6" opacity=".8"/>
  <circle cx="90" cy="240" r="10" fill="#a5d6a7" opacity=".8"/>
  <circle cx="720" cy="234" r="10" fill="#ffb74d" opacity=".8"/>
  <circle cx="740" cy="228" r="10" fill="#ce93d8" opacity=".8"/>
  <circle cx="760" cy="236" r="10" fill="#80cbc4" opacity=".8"/>
  <circle cx="50" cy="220" r="14" fill="#ff6b6b" opacity=".88"/>
  <line x1="50" y1="234" x2="50" y2="246" stroke="#aaa" stroke-width="1.5"/>
  <circle cx="760" cy="214" r="14" fill="#66d9e8" opacity=".88"/>
  <line x1="760" y1="228" x2="760" y2="240" stroke="#aaa" stroke-width="1.5"/>
  <circle cx="700" cy="210" r="14" fill="#ff9800" opacity=".88"/>
  <line x1="700" y1="224" x2="700" y2="236" stroke="#aaa" stroke-width="1.5"/>
  <text x="400" y="120" text-anchor="middle" font-size="42" fill="#e53935" opacity=".55" font-family="Arial">&#9829;</text>
  <text x="400" y="148" text-anchor="middle" font-family="Arial,sans-serif" font-size="13" fill="#c62828" opacity=".7" letter-spacing="2">RUN FOR A CAUSE</text>
  <text x="400" y="455" text-anchor="middle" font-family="Georgia,serif" font-size="28" font-weight="700" fill="#c62828" letter-spacing="6">CHARITY MARATHON</text>
  <text x="400" y="482" text-anchor="middle" font-family="Arial,sans-serif" font-size="14" fill="#e53935" opacity=".6" letter-spacing="3">Community Portal · Event Gallery</text>
</svg>
