<svg xmlns="http://www.w3.org/2000/svg" viewBox="0 0 800 500" width="800" height="500">
  <rect width="800" height="500" fill="#1a0800"/>
  <ellipse cx="400" cy="520" rx="520" ry="200" fill="#8b3a00" opacity=".35"/>
  <ellipse cx="400" cy="520" rx="350" ry="150" fill="#a04800" opacity=".2"/>
  <circle cx="200" cy="60" r="2" fill="#fffbe6" opacity=".7"/>
  <circle cx="320" cy="30" r="1.8" fill="#fffbe6" opacity=".6"/>
  <circle cx="480" cy="45" r="2" fill="#fffbe6" opacity=".5"/>
  <circle cx="620" cy="25" r="1.5" fill="#fffbe6" opacity=".7"/>
  <circle cx="730" cy="55" r="2" fill="#fffbe6" opacity=".6"/>
  <circle cx="90" cy="40" r="1.5" fill="#fffbe6" opacity=".5"/>
  <path d="M50 60 Q400 15 750 60" fill="none" stroke="#6b4800" stroke-width="1.5"/>
  <path d="M50 60 Q400 15 750 60 L750 300 Q400 260 50 300 Z" fill="#5c1a00" opacity=".5"/>
  <path d="M50 60 Q400 15 750 60" fill="none" stroke="#d4af37" stroke-width="3"/>
  <circle cx="108" cy="62" r="6" fill="#ffe066"/>
  <circle cx="185" cy="42" r="6" fill="#ff6b9d"/>
  <circle cx="262" cy="30" r="6" fill="#ffd700"/>
  <circle cx="340" cy="22" r="6" fill="#a78bfa"/>
  <circle cx="400" cy="19" r="6" fill="#ffd700"/>
  <circle cx="460" cy="22" r="6" fill="#ff6b9d"/>
  <circle cx="538" cy="30" r="6" fill="#60d394"/>
  <circle cx="615" cy="42" r="6" fill="#ffd700"/>
  <circle cx="692" cy="62" r="6" fill="#ff6b9d"/>
  <circle cx="108" cy="62" r="14" fill="#ffe066" opacity=".15"/>
  <circle cx="400" cy="19" r="14" fill="#ffd700" opacity=".15"/>
  <circle cx="692" cy="62" r="14" fill="#ff6b9d" opacity=".15"/>
  <ellipse cx="250" cy="195" rx="18" ry="20" fill="#c8860a"/>
  <path d="M236 213 Q224 250 218 285" stroke="#cc5500" stroke-width="16" stroke-linecap="round" fill="none"/>
  <path d="M264 213 Q276 250 282 285" stroke="#cc5500" stroke-width="16" stroke-linecap="round" fill="none"/>
  <line x1="236" y1="220" x2="200" y2="204" stroke="#cc5500" stroke-width="8" stroke-linecap="round"/>
  <line x1="264" y1="220" x2="300" y2="204" stroke="#cc5500" stroke-width="8" stroke-linecap="round"/>
  <line x1="200" y1="204" x2="185" y2="195" stroke="#cc5500" stroke-width="5" stroke-linecap="round"/>
  <line x1="300" y1="204" x2="315" y2="193" stroke="#cc5500" stroke-width="5" stroke-linecap="round"/>
  <path d="M218 285 Q238 305 250 298 Q262 292 282 285" fill="#e83e8c" opacity=".95"/>
  <ellipse cx="250" cy="178" rx="8" ry="5" fill="#ffd700"/>
  <ellipse cx="550" cy="188" rx="18" ry="20" fill="#f4a261"/>
  <path d="M536 206 Q524 243 518 278" stroke="#d45000" stroke-width="16" stroke-linecap="round" fill="none"/>
  <path d="M564 206 Q576 243 582 278" stroke="#d45000" stroke-width="16" stroke-linecap="round" fill="none"/>
  <line x1="536" y1="213" x2="500" y2="197" stroke="#d45000" stroke-width="8" stroke-linecap="round"/>
  <line x1="564" y1="213" x2="600" y2="197" stroke="#d45000" stroke-width="8" stroke-linecap="round"/>
  <line x1="500" y1="197" x2="485" y2="186" stroke="#d45000" stroke-width="5" stroke-linecap="round"/>
  <line x1="600" y1="197" x2="615" y2="185" stroke="#d45000" stroke-width="5" stroke-linecap="round"/>
  <path d="M518 278 Q538 298 550 292 Q562 286 582 278" fill="#a855f7" opacity=".95"/>
  <ellipse cx="550" cy="171" rx="8" ry="5" fill="#ffd700"/>
  <ellipse cx="120" cy="370" rx="24" ry="12" fill="#b05000"/>
  <path d="M108 360 Q100 338 96 320" stroke="#b05000" stroke-width="5" fill="none" stroke-linecap="round"/>
  <ellipse cx="96" cy="318" rx="10" ry="6" fill="#ffd700"/>
  <ellipse cx="96" cy="313" rx="6" ry="9" fill="#ff8c00"/>
  <ellipse cx="96" cy="308" rx="4" ry="6" fill="#ffe066"/>
  <ellipse cx="200" cy="370" rx="24" ry="12" fill="#b05000"/>
  <path d="M188 360 Q180 338 176 320" stroke="#b05000" stroke-width="5" fill="none" stroke-linecap="round"/>
  <ellipse cx="176" cy="318" rx="10" ry="6" fill="#ffd700"/>
  <ellipse cx="176" cy="313" rx="6" ry="9" fill="#ff8c00"/>
  <ellipse cx="176" cy="308" rx="4" ry="6" fill="#ffe066"/>
  <ellipse cx="600" cy="370" rx="24" ry="12" fill="#b05000"/>
  <path d="M588 360 Q580 338 576 320" stroke="#b05000" stroke-width="5" fill="none" stroke-linecap="round"/>
  <ellipse cx="576" cy="318" rx="10" ry="6" fill="#ffd700"/>
  <ellipse cx="576" cy="313" rx="6" ry="9" fill="#ff8c00"/>
  <ellipse cx="576" cy="308" rx="4" ry="6" fill="#ffe066"/>
  <ellipse cx="680" cy="370" rx="24" ry="12" fill="#b05000"/>
  <path d="M668 360 Q660 338 656 320" stroke="#b05000" stroke-width="5" fill="none" stroke-linecap="round"/>
  <ellipse cx="656" cy="318" rx="10" ry="6" fill="#ffd700"/>
  <ellipse cx="656" cy="313" rx="6" ry="9" fill="#ff8c00"/>
  <ellipse cx="656" cy="308" rx="4" ry="6" fill="#ffe066"/>
  <circle cx="400" cy="350" r="4" fill="#ffd700" opacity=".8"/>
  <circle cx="372" cy="360" r="4" fill="#ff6b9d" opacity=".8"/>
  <circle cx="428" cy="360" r="4" fill="#60d394" opacity=".8"/>
  <circle cx="400" cy="370" r="4" fill="#a78bfa" opacity=".8"/>
  <circle cx="386" cy="342" r="3" fill="#ffd700" opacity=".6"/>
  <circle cx="414" cy="342" r="3" fill="#ff6b9d" opacity=".6"/>
  <circle cx="358" cy="370" r="3" fill="#60d394" opacity=".6"/>
  <circle cx="442" cy="370" r="3" fill="#ffd700" opacity=".6"/>
  <text x="400" y="448" text-anchor="middle" font-family="Georgia,serif" font-size="28" font-weight="700" fill="#ffd700" letter-spacing="6">CULTURAL NIGHT</text>
  <text x="400" y="476" text-anchor="middle" font-family="Arial,sans-serif" font-size="14" fill="rgba(255,215,0,0.45)" letter-spacing="3">Community Portal · Event Gallery</text>
</svg>
